<mxfile host="app.diagrams.net" modified="2021-12-26T09:04:40.087Z" agent="5.0 (Windows NT 10.0; Win64; x64) AppleWebKit/537.36 (KHTML, like Gecko) Chrome/92.0.4515.107 Safari/537.36" etag="8xErDiH0DjstXhX_BjuC" version="16.0.0" type="github">
  <diagram id="l_xTGjEDLuFCOCQ6yGdL" name="Page-1">
    <mxGraphModel dx="782" dy="380" grid="1" gridSize="10" guides="1" tooltips="1" connect="1" arrows="1" fold="1" page="1" pageScale="1" pageWidth="827" pageHeight="1169" math="0" shadow="0">
      <root>
        <mxCell id="0" />
        <mxCell id="1" parent="0" />
        <mxCell id="BXAtRn4mZZ8piuDLXr6t-1" value="NAT-ED&amp;nbsp;" style="text;html=1;strokeColor=#d79b00;fillColor=#ffe6cc;align=center;verticalAlign=middle;whiteSpace=wrap;rounded=0;dashed=1;dashPattern=1 2;" vertex="1" parent="1">
          <mxGeometry y="20" width="110" height="30" as="geometry" />
        </mxCell>
        <mxCell id="BXAtRn4mZZ8piuDLXr6t-2" value="snat_main_t&#xa;Nat-ed 管理结构" style="swimlane;fontStyle=1;align=center;verticalAlign=top;childLayout=stackLayout;horizontal=1;startSize=40;horizontalStack=0;resizeParent=1;resizeParentMax=0;resizeLast=0;collapsible=1;marginBottom=0;strokeColor=#d79b00;fillColor=#ffe6cc;" vertex="1" parent="1">
          <mxGeometry x="40" y="150" width="280" height="490" as="geometry" />
        </mxCell>
        <mxCell id="BXAtRn4mZZ8piuDLXr6t-3" value="u32 num_workers;&#xa;u32 first_worker_index;&#xa;u32 *workers;&#xa;u16 port_per_thread;" style="text;strokeColor=#d6b656;fillColor=#fff2cc;align=left;verticalAlign=top;spacingLeft=4;spacingRight=4;overflow=hidden;rotatable=0;points=[[0,0.5],[1,0.5]];portConstraint=eastwest;" vertex="1" parent="BXAtRn4mZZ8piuDLXr6t-2">
          <mxGeometry y="40" width="280" height="70" as="geometry" />
        </mxCell>
        <mxCell id="BXAtRn4mZZ8piuDLXr6t-5" value="snat_main_per_thread_data_t *per_thread_data;" style="text;strokeColor=#d6b656;fillColor=#fff2cc;align=left;verticalAlign=top;spacingLeft=4;spacingRight=4;overflow=hidden;rotatable=0;points=[[0,0.5],[1,0.5]];portConstraint=eastwest;" vertex="1" parent="BXAtRn4mZZ8piuDLXr6t-2">
          <mxGeometry y="110" width="280" height="24" as="geometry" />
        </mxCell>
        <mxCell id="BXAtRn4mZZ8piuDLXr6t-6" value="snat_static_mapping_t *static_mappings;" style="text;strokeColor=#d6b656;fillColor=#fff2cc;align=left;verticalAlign=top;spacingLeft=4;spacingRight=4;overflow=hidden;rotatable=0;points=[[0,0.5],[1,0.5]];portConstraint=eastwest;" vertex="1" parent="BXAtRn4mZZ8piuDLXr6t-2">
          <mxGeometry y="134" width="280" height="30" as="geometry" />
        </mxCell>
        <mxCell id="BXAtRn4mZZ8piuDLXr6t-7" value="  clib_bihash_8_8_t in2out;&#xa;  clib_bihash_8_8_t out2in;" style="text;strokeColor=#d6b656;fillColor=#fff2cc;align=left;verticalAlign=top;spacingLeft=4;spacingRight=4;overflow=hidden;rotatable=0;points=[[0,0.5],[1,0.5]];portConstraint=eastwest;" vertex="1" parent="BXAtRn4mZZ8piuDLXr6t-2">
          <mxGeometry y="164" width="280" height="36" as="geometry" />
        </mxCell>
        <mxCell id="BXAtRn4mZZ8piuDLXr6t-8" value="clib_bihash_16_8_t flow_hash;" style="text;strokeColor=#d6b656;fillColor=#fff2cc;align=left;verticalAlign=top;spacingLeft=4;spacingRight=4;overflow=hidden;rotatable=0;points=[[0,0.5],[1,0.5]];portConstraint=eastwest;" vertex="1" parent="BXAtRn4mZZ8piuDLXr6t-2">
          <mxGeometry y="200" width="280" height="30" as="geometry" />
        </mxCell>
        <mxCell id="BXAtRn4mZZ8piuDLXr6t-9" value="  snat_interface_t *interfaces;&#xa;  snat_interface_t *output_feature_interfaces;&#xa;  // broken api backward compatibility&#xa;  snat_interface_t *output_feature_dummy_interfaces;" style="text;strokeColor=#d6b656;fillColor=#fff2cc;align=left;verticalAlign=top;spacingLeft=4;spacingRight=4;overflow=hidden;rotatable=0;points=[[0,0.5],[1,0.5]];portConstraint=eastwest;" vertex="1" parent="BXAtRn4mZZ8piuDLXr6t-2">
          <mxGeometry y="230" width="280" height="70" as="geometry" />
        </mxCell>
        <mxCell id="BXAtRn4mZZ8piuDLXr6t-10" value="  snat_address_t *addresses;&#xa;  snat_address_t *twice_nat_addresses;" style="text;strokeColor=#d6b656;fillColor=#fff2cc;align=left;verticalAlign=top;spacingLeft=4;spacingRight=4;overflow=hidden;rotatable=0;points=[[0,0.5],[1,0.5]];portConstraint=eastwest;" vertex="1" parent="BXAtRn4mZZ8piuDLXr6t-2">
          <mxGeometry y="300" width="280" height="40" as="geometry" />
        </mxCell>
        <mxCell id="BXAtRn4mZZ8piuDLXr6t-11" value="  u32 *auto_add_sw_if_indices;&#xa;  u32 *auto_add_sw_if_indices_twice_nat;" style="text;strokeColor=#d6b656;fillColor=#fff2cc;align=left;verticalAlign=top;spacingLeft=4;spacingRight=4;overflow=hidden;rotatable=0;points=[[0,0.5],[1,0.5]];portConstraint=eastwest;" vertex="1" parent="BXAtRn4mZZ8piuDLXr6t-2">
          <mxGeometry y="340" width="280" height="40" as="geometry" />
        </mxCell>
        <mxCell id="BXAtRn4mZZ8piuDLXr6t-12" value="nat_alloc_out_addr_and_port_function_t &#xa;*alloc_addr_and_port;" style="text;strokeColor=#d6b656;fillColor=#fff2cc;align=left;verticalAlign=top;spacingLeft=4;spacingRight=4;overflow=hidden;rotatable=0;points=[[0,0.5],[1,0.5]];portConstraint=eastwest;" vertex="1" parent="BXAtRn4mZZ8piuDLXr6t-2">
          <mxGeometry y="380" width="280" height="40" as="geometry" />
        </mxCell>
        <mxCell id="BXAtRn4mZZ8piuDLXr6t-13" value="nat_addr_and_port_alloc_alg_t &#xa;addr_and_port_alloc_alg;" style="text;strokeColor=#d6b656;fillColor=#fff2cc;align=left;verticalAlign=top;spacingLeft=4;spacingRight=4;overflow=hidden;rotatable=0;points=[[0,0.5],[1,0.5]];portConstraint=eastwest;" vertex="1" parent="BXAtRn4mZZ8piuDLXr6t-2">
          <mxGeometry y="420" width="280" height="40" as="geometry" />
        </mxCell>
        <mxCell id="BXAtRn4mZZ8piuDLXr6t-14" value="clib_bihash_16_8_t flow_hash;" style="text;strokeColor=#d6b656;fillColor=#fff2cc;align=left;verticalAlign=top;spacingLeft=4;spacingRight=4;overflow=hidden;rotatable=0;points=[[0,0.5],[1,0.5]];portConstraint=eastwest;" vertex="1" parent="BXAtRn4mZZ8piuDLXr6t-2">
          <mxGeometry y="460" width="280" height="30" as="geometry" />
        </mxCell>
      </root>
    </mxGraphModel>
  </diagram>
</mxfile>
